<?xml version="1.0" standalone="no"?><!DOCTYPE svg PUBLIC "-//W3C//DTD SVG 1.1//EN" "http://www.w3.org/Graphics/SVG/1.1/DTD/svg11.dtd"><svg t="1670069609284" class="icon" viewBox="0 0 1024 1024" version="1.1" xmlns="http://www.w3.org/2000/svg" p-id="2680" xmlns:xlink="http://www.w3.org/1999/xlink" width="64" height="64"><path d="M327.175 767.786h-204.743c-42.33 0-76.778-34.448-76.778-76.779v-614.228c0-42.33 34.448-76.778 76.778-76.778h716.601c42.33 0 76.778 34.448 76.778 76.778v358.3c0 14.127-11.466 25.593-25.593 25.593-14.128 0-25.593-11.466-25.593-25.593v-358.3c0-14.128-11.466-25.593-25.593-25.593h-716.601c-14.127 0-25.593 11.465-25.593 25.593v614.228c0 14.128 11.466 25.594 25.593 25.594h204.743c14.128 0 25.593 11.465 25.593 25.593-0.001 14.126-11.466 25.593-25.593 25.593v0zM711.068 1023.714c-10.135 0-19.757-6.092-23.751-16.071l-86.862-217.13-151.663 173.315c-7.012 8.036-18.273 10.852-28.255 7.114s-16.585-13.309-16.585-23.955v-767.786c0-10.135 5.989-19.297 15.254-23.392s20.064-2.354 27.59 4.453l563.043 511.857c7.831 7.114 10.493 18.325 6.653 28.153-3.839 9.827-13.309 16.379-23.853 16.379h-218.103l88.347 220.814c5.271 13.104-1.126 28-14.281 33.27l-127.964 51.186c-3.122 1.229-6.348 1.843-9.521 1.843l-0.051-0.050zM608.697 716.601c1.434 0 2.866 0.102 4.3 0.357 8.804 1.485 16.123 7.474 19.45 15.714l92.851 232.178 80.464-32.196-92.851-232.178c-3.173-7.882-2.199-16.839 2.56-23.852 4.761-7.013 12.693-11.261 21.19-11.261h189.746l-471.267-428.425v641.818l134.313-153.506c4.913-5.58 11.926-8.753 19.246-8.753v0.103z" p-id="2681"></path></svg>