<?xml version="1.0" standalone="no"?><!DOCTYPE svg PUBLIC "-//W3C//DTD SVG 1.1//EN" "http://www.w3.org/Graphics/SVG/1.1/DTD/svg11.dtd"><svg t="1671000212640" class="icon" viewBox="0 0 1024 1024" version="1.1" xmlns="http://www.w3.org/2000/svg" p-id="4334" xmlns:xlink="http://www.w3.org/1999/xlink" width="64" height="64"><path d="M832 448l-84.5 0c13-20.8 20.5-45.4 20.5-71.8L768 135.8C768 60.8 707.2 0 632.2 0L327.8 0C252.8 0 192 60.8 192 135.8l0 240.5c0 26.4 7.5 50.9 20.5 71.8L128 448.1C57.3 448 0 505.3 0 576l0 256c0 70.7 57.3 128 128 128l256 0c38.2 0 72.5-16.8 96-43.3 23.5 26.6 57.8 43.3 96 43.3l256 0c70.7 0 128-57.3 128-128L960 576C960 505.3 902.7 448 832 448zM256 376.2 256 135.8c0-39.6 32.2-71.8 71.8-71.8l304.5 0c39.6 0 71.8 32.2 71.8 71.8l0 240.5c0 39.6-32.2 71.8-71.8 71.8L576 448.1 384 448.1l-56.2 0C288.2 448 256 415.8 256 376.2zM384 896 128 896c-35.3 0-64-28.7-64-64L64 576c0-35.3 28.7-64 64-64l199.8 0L384 512c35.3 0 64 28.7 64 64l0 256C448 867.3 419.3 896 384 896zM896 832c0 35.3-28.7 64-64 64L576 896c-35.3 0-64-28.7-64-64L512 576c0-35.3 28.7-64 64-64l56.2 0L832 512c35.3 0 64 28.7 64 64L896 832z" p-id="4335"></path></svg>