<?xml version="1.0" standalone="no"?><!DOCTYPE svg PUBLIC "-//W3C//DTD SVG 1.1//EN" "http://www.w3.org/Graphics/SVG/1.1/DTD/svg11.dtd"><svg t="1672983644229" class="icon" viewBox="0 0 1167 1024" version="1.1" xmlns="http://www.w3.org/2000/svg" p-id="1963" xmlns:xlink="http://www.w3.org/1999/xlink" width="72.9375" height="64"><path d="M328.47015072 821.68988375l113.81949655-68.10832969 113.81949658 68.10832969a13.41210187 13.41210187 0 0 0 20.30152124-11.49982969v-539.62753312a53.70079781 53.70079781 0 0 0-53.70079875-53.70079783H361.81703604a53.70079781 53.70079781 0 0 0-53.70079783 53.70079783v539.62753312a13.41210187 13.41210187 0 0 0 20.3539125 11.49982969z m60.17108906-551.16665531h107.29681405a26.82420375 26.82420375 0 0 1 26.77181251 26.78491032v450.71996718l-80.42021907-48.14734969-80.47261123 48.1604475V297.30813876a26.83730156 26.83730156 0 0 1 26.82420374-26.82420376z m0 0" p-id="1964"></path><path d="M562.9854654 834.06726219a23.82481781 23.82481781 0 0 1-12.27259688-3.43161188l-108.42322125-64.91247656-108.43631907 64.91247656a23.89030594 23.89030594 0 0 1-36.16290374-20.4979875v-539.62753219a64.17900281 64.17900281 0 0 1 64.17900281-64.17900281h160.84043907a64.17900281 64.17900281 0 0 1 64.17900282 64.17900281v539.62753219a23.99508844 23.99508844 0 0 1-23.90340376 23.92959938z m-120.69581813-92.77140282l119.18957626 71.35657219a2.93389687 2.93389687 0 0 0 4.45323656-2.51476875v-539.62753219a43.22259375 43.22259375 0 0 0-43.22259375-43.22259375H361.81703604a43.22259375 43.22259375 0 0 0-43.22259377 43.22259375v539.62753219a2.93389687 2.93389687 0 0 0 4.45323751 2.51476875z m-90.9508153 25.21317938V297.30813876a37.34170125 37.34170125 0 0 1 37.30240781-37.30240877h107.29681405a37.34170125 37.34170125 0 0 1 37.25001752 37.30240875v469.20090001l-90.89842408-54.43427251z m90.9508153-78.86158688l69.99440626 41.91281812v-432.22593655a16.35909657 16.35909657 0 0 0-16.3459997-16.34599875h-107.29681405a16.37219437 16.37219437 0 0 0-16.34599876 16.34599875v432.22593655z" p-id="1965"></path><path d="M1112.89473634 391.19285094a26.85039938 26.85039938 0 1 0 0-53.70079782c-60.603315 0-109.9032675-43.96916531-109.90326845-98.02360406v-45.34443c0-54.04134 49.2999525-97.9974075 109.90326845-97.9974075a26.85039938 26.85039938 0 0 0 0-53.70079781H193.02625947C123.39859009 42.42581375 66.75079665 95.19667063 66.75079665 160.03056125v113.49205312c0 36.51654281 17.97012094 69.19544345 46.10410032 90.79364157C84.73401539 385.90135719 66.75079665 418.59335563 66.75079665 455.10989844v113.47895437c0 36.51654281 17.97012094 69.19544345 46.10410032 90.78054468C84.73401539 680.96759657 66.75079665 713.64649718 66.75079665 750.16304001v113.47895437c0 64.84698844 56.64779344 117.61784531 126.27546282 117.61784624h919.86847687a26.85039938 26.85039938 0 0 0 0-53.70079875c-60.603315 0-109.9032675-43.96916531-109.90326845-98.0105053v-45.27894095c0-54.05443781 49.2999525-98.01050531 109.90326845-98.01050531a26.85039938 26.85039938 0 0 0 0-53.70079875c-60.603315 0-109.9032675-43.96916531-109.90326845-98.01050531v-45.34442999c0-54.04134 49.2999525-98.02360313 109.90326845-98.02360314zM988.17790665 632.61068281H630.1114629a26.85039938 26.85039938 0 0 0 0 53.70079782H988.17790665c-24.23084813 26.45746593-38.84794313 60.68190188-38.84794312 98.01050624v45.3837225c0 37.32860343 14.617095 71.55303937 38.84794312 98.01050625H193.02625947c-40.05293719 0-72.62705531-28.68408469-72.62705532-63.96943875v-113.51824875c0-35.27225625 32.57411812-63.96943875 72.62705531-63.96943781h61.4939625a26.85039938 26.85039938 0 1 0 0-53.70079875h-61.4939625c-40.05293719 0-72.62705531-28.68408469-72.62705531-63.95634094v-113.42656312c0-35.27225625 32.57411812-63.98253657 72.62705531-63.98253656h61.4939625a26.85039938 26.85039938 0 1 0 0-53.70079782h-61.4939625c-40.05293719 0-72.62705531-28.6971825-72.62705531-63.96943875V160.0829525c0-35.27225625 32.57411812-63.95634094 72.62705531-63.95634094H988.17790665c-24.2046525 26.44436906-38.84794313 60.66880406-38.84794312 98.01050531v45.39682126c0 37.32860343 14.617095 71.55303937 38.84794312 98.0105053H630.1114629a26.85039938 26.85039938 0 0 0 0 53.70079876H988.17790665c-24.23084813 26.45746593-38.84794313 60.66880406-38.84794312 98.02360311v45.38372345c0 37.32860343 14.63019281 71.55303937 38.84794312 98.01050531z m0 0" p-id="1966"></path><path d="M1112.89473634 991.80353375H193.02625947C117.62248009 991.80353375 56.27259259 934.34367969 56.27259259 863.70748343v-113.4789553c0-34.34231531 14.56470469-66.79855406 40.3672828-90.79364157C70.83729728 635.43979812 56.27259259 602.95736375 56.27259259 568.65434188v-113.47895438c0-34.34231531 14.56470469-66.79855406 40.3672828-90.7936425C70.83729728 340.38665655 56.27259259 307.93041781 56.27259259 273.5881025V160.0829525C56.27259259 89.45985406 117.62248009 32 193.02625947 32h919.86847687a37.32860343 37.32860343 0 1 1 0 74.65720686c-54.827205 0-99.42506345 39.29326688-99.42506343 87.51920345v45.39682125c0 48.26523001 44.59785844 87.54539906 99.42506343 87.54539907a37.32860343 37.32860343 0 1 1 0 74.65720687c-54.827205 0-99.42506345 39.29326688-99.42506343 87.54539905v45.3837225c0 48.26523001 44.59785844 87.53230125 99.42506343 87.53230126a37.32860343 37.32860343 0 1 1 0 74.65720688c-54.827205 0-99.42506345 39.29326688-99.42506343 87.53230125v45.38372344c0 48.26523001 44.59785844 87.53230125 99.42506343 87.53230126a37.32860343 37.32860343 0 1 1 0 74.65720686zM193.02625947 52.95640906C129.17470009 52.95640906 77.22900165 101.01207406 77.22900165 160.0829525v113.49205219c0 31.91923031 15.31127625 61.97857969 42.00450188 82.51586062l10.81874625 8.31707532-10.81874625 8.30397656c-26.69322563 20.49798749-42.00450281 50.55733689-42.00450188 82.51586062v113.47895532c0 31.91923031 15.31127625 61.97857969 42.00450188 82.51586062l10.81874625 8.30397656-10.81874625 8.31707532c-26.69322563 20.49798749-42.00450281 50.55733689-42.00450188 82.51586062v113.47895438c0 59.0708775 51.94569844 107.13964125 115.79725781 107.13964125h919.86847688a16.37219437 16.37219437 0 1 0 0-32.74438875c-66.37942594 0-120.3814725-48.67126031-120.3814725-108.48871032v-45.47540718c0-59.83054781 54.00204656-108.48871031 120.3814725-108.48871032a16.37219437 16.37219437 0 1 0 0-32.74438876c-66.37942594 0-120.3814725-48.67126031-120.3814725-108.4887103v-45.34443002c0-59.83054781 54.00204656-108.50180813 120.3814725-108.5018081a16.37219437 16.37219437 0 1 0 0-32.74438875c-66.37942594 0-120.3814725-48.67126031-120.3814725-108.50180813v-45.33133219c0-59.81745001 54.00204656-108.4756125 120.3814725-108.47561156a16.37219437 16.37219437 0 1 0 0-32.74438969z m818.95026937 885.19871719H193.02625947c-45.842145 0-83.10525938-33.39927655-83.10525938-74.4476428v-113.47895533c0-41.04836625 37.27621219-74.44764281 83.10525938-74.44764281h61.49396249a16.37219437 16.37219437 0 1 0 0-32.74438874h-61.4939625c-45.842145 0-83.10525938-33.39927655-83.10525937-74.43454595v-113.42656312c0-41.06146406 37.27621219-74.46074062 83.10525938-74.46074156h61.49396249a16.37219437 16.37219437 0 1 0 0-32.74438875h-61.4939625c-45.842145 0-83.10525938-33.39927655-83.10525937-74.44764282V160.0829525c0-41.04836625 37.27621219-74.434545 83.10525938-74.434545h818.95026937l-16.07094657 17.55099188c-23.27471156 25.42274345-36.09741469 57.72180937-36.09741469 90.93771749v45.39682126c0 33.21590812 12.82270313 65.48877844 36.09741469 90.9377175l16.07094657 17.55099281H630.1114629a16.37219437 16.37219437 0 0 0 0 32.74438875h381.86506594l-16.07094657 17.5509928c-23.27471156 25.42274345-36.09741469 57.72180937-36.09741469 90.9377175v45.38372345c0 33.21590812 12.82270313 65.48877844 36.09741469 90.92461969l16.07094657 17.55099186H630.1114629a16.37219437 16.37219437 0 0 0 0 32.7443897h381.86506594l-16.07094657 17.47240594c-23.27471156 25.42274345-36.09741469 57.72180937-36.09741469 90.93771749V829.65331906c0 33.21590812 12.82270313 65.48877844 36.09741469 90.93771749zM193.02625947 696.73729438c-34.26372844 0-62.14885031 23.99508844-62.14885033 53.49123374V863.70748343c0 29.49614531 27.88512187 53.49123375 62.14885032 53.49123376h773.43556875a154.1081925 154.1081925 0 0 1-27.61006967-87.53230032v-45.39682124a154.12129031 154.12129031 0 0 1 27.61006967-87.53230125h-336.35036531a37.32860343 37.32860343 0 0 1 0-74.65720688h336.35036531a154.09509562 154.09509562 0 0 1-27.61006967-87.51920344v-45.33133218a154.12129031 154.12129031 0 0 1 27.61006967-87.54539907h-336.35036531a37.32860343 37.32860343 0 0 1 0-74.65720687h336.35036531a154.13438812 154.13438812 0 0 1-27.61006967-87.53230125v-45.35752782a154.12129031 154.12129031 0 0 1 27.61006967-87.58469156H193.02625947c-34.26372844 0-62.14885031 23.99508844-62.14885033 53.47813594v113.49205312c0 29.49614531 27.88512187 53.49123375 62.14885032 53.49123375h61.4939625a37.32860343 37.32860343 0 1 1 0 74.65720688h-61.4939625c-34.26372844 0-62.14885031 23.99508844-62.14885032 53.5043325v113.47895438c0 29.4830475 27.88512187 53.47813594 62.14885032 53.47813687h61.4939625a37.32860343 37.32860343 0 1 1 0 74.65720687z" p-id="1967"></path></svg>