<?xml version="1.0" standalone="no"?><!DOCTYPE svg PUBLIC "-//W3C//DTD SVG 1.1//EN" "http://www.w3.org/Graphics/SVG/1.1/DTD/svg11.dtd"><svg t="1639753969780" class="icon" viewBox="0 0 1024 1024" version="1.1" xmlns="http://www.w3.org/2000/svg" p-id="2077" xmlns:xlink="http://www.w3.org/1999/xlink" width="64" height="64"><defs><style type="text/css"></style></defs><path d="M895.264 256l-126.368 0L896 128.512 770.368 0l-178.112 0 127.616 127.488L589.12 256l-151.136 0 129.888-127.488L439.488 0 258.496 0l127.488 127.488L255.264 256 127.008 256l129.984-127.488L128.512 0 0 0l0 1024 1024 0L1024 0l-125.504 0L1024 128 895.264 256zM896 896 128 896l0-128 768 0L896 896zM896 640 128 640l0-128 768 0L896 640z" p-id="2078"></path></svg>