<?xml version="1.0" standalone="no"?><!DOCTYPE svg PUBLIC "-//W3C//DTD SVG 1.1//EN" "http://www.w3.org/Graphics/SVG/1.1/DTD/svg11.dtd"><svg t="1674908135350" class="icon" viewBox="0 0 1024 1024" version="1.1" xmlns="http://www.w3.org/2000/svg" p-id="3057" xmlns:xlink="http://www.w3.org/1999/xlink" width="64" height="64"><path d="M930.6 66 223.4 66c-51.6 0-93.4 41.8-93.4 93.4L130 192 93.4 192C41.8 192 0 233.8 0 285.4l0 581.1C0 918.2 41.8 960 93.4 960l707.1 0c51.6 0 93.4-41.8 93.4-93.4L893.9 834l36.6 0c51.6 0 93.4-41.8 93.4-93.4L1023.9 159.4C1024 107.8 982.2 66 930.6 66zM830 866.6c0 16.2-13.2 29.4-29.4 29.4l-54.9 0C731 787.2 654.5 698.1 552.8 665c64.7-37.9 108.1-108.2 108.1-188.6 0-120.6-97.8-218.4-218.4-218.4s-218.4 97.8-218.4 218.4c0 80.4 43.5 150.6 108.1 188.6C230.5 698.1 154 787.2 139.3 896L93.4 896C77.2 896 64 882.8 64 866.6L64 285.4c0-16.2 13.2-29.4 29.4-29.4L130 256l670.6 0c13.7 0 25.2 9.4 28.5 22.1 0.6 2.3 0.9 4.8 0.9 7.3L830 834 830 866.6zM442.5 630.9c-41.2 0-80-16.1-109.2-45.2-29.2-29.2-45.2-67.9-45.2-109.2 0-41.2 16.1-80 45.2-109.2 29.2-29.2 67.9-45.2 109.2-45.2 41.2 0 80 16.1 109.2 45.2 29.2 29.2 45.2 67.9 45.2 109.2 0 41.2-16.1 80-45.2 109.2C522.5 614.8 483.7 630.9 442.5 630.9zM465.2 715.2c58.5 0 113.5 22.8 154.9 64.2 31.9 31.9 52.7 71.9 60.6 115.3L204.3 894.7c7.9-43.4 28.7-83.4 60.6-115.3 41.4-41.4 96.4-64.2 154.9-64.2L465.2 715.2zM960 740.6c0 16.2-13.2 29.4-29.4 29.4L894 770 894 285.4c0-51.6-41.8-93.4-93.4-93.4l0 0L194 192l0-32.6c0-16.2 13.2-29.4 29.4-29.4l707.1 0c16.2 0 29.4 13.2 29.4 29.4L959.9 740.6z" p-id="3058"></path></svg>