<?xml version="1.0" standalone="no"?><!DOCTYPE svg PUBLIC "-//W3C//DTD SVG 1.1//EN" "http://www.w3.org/Graphics/SVG/1.1/DTD/svg11.dtd"><svg t="1642490021812" class="icon" viewBox="0 0 1045 1024" version="1.1" xmlns="http://www.w3.org/2000/svg" p-id="2308" xmlns:xlink="http://www.w3.org/1999/xlink" width="204.1015625" height="200"><defs><style type="text/css"></style></defs><path d="M229.83609 177.191812l461.985567 0 0 57.748052-461.985567 0 0-57.748052ZM228.296527 293.255001l461.985567 0 0 57.748052-461.985567 0 0-57.748052ZM114.341142 60.754415l692.976619 0 0 461.984413 57.748052 0 0-461.984413c0-31.893094-25.854958-57.748052-57.748052-57.748052l-692.976619 0c-31.893094 0-57.748052 25.854958-57.748052 57.748052l0 808.472722c0 31.893094 25.854958 57.748052 57.748052 57.748052l404.236361 0 0-57.748052-404.236361 0L114.341142 60.754415zM229.451488 524.241432l0 57.748052 140.452501 0c0-20.068603 2.939376-39.447694 8.386172-57.748052L229.451488 524.241432zM465.562482 408.745329 228.296527 408.745329l0 57.748052 175.543682 0C420.103216 443.180492 441.148916 423.454913 465.562482 408.745329zM902.807629 873.522437 770.391347 742.678057c30.443618-35.382231 48.851387-81.416668 48.851387-131.75449 0-111.626984-90.492352-202.11818-202.117026-202.11818-111.625829 0-202.11818 90.491197-202.11818 202.11818 0 111.624674 90.492352 202.11818 202.11818 202.11818 40.412086 0 78.049957-11.867225 109.631211-32.298485l135.217063 133.613977c11.275885 11.275885 29.557763 11.275885 40.833647 0C914.082359 903.0802 914.082359 884.799477 902.807629 873.522437zM472.754424 610.923567c0-79.73389 64.638549-144.370129 144.371284-144.370129 79.73158 0 144.368974 64.636239 144.368974 144.370129 0 79.73158-64.637394 144.370129-144.368974 144.370129C537.392973 755.293696 472.754424 690.655147 472.754424 610.923567z" p-id="2309"></path></svg>