<?xml version="1.0" standalone="no"?><!DOCTYPE svg PUBLIC "-//W3C//DTD SVG 1.1//EN" "http://www.w3.org/Graphics/SVG/1.1/DTD/svg11.dtd"><svg t="1638845837964" class="icon" viewBox="0 0 1024 1024" version="1.1" xmlns="http://www.w3.org/2000/svg" p-id="3673" xmlns:xlink="http://www.w3.org/1999/xlink" width="200" height="200"><defs><style type="text/css"></style></defs><path d="M902.0928 268.19072h-48.76288V145.49504c0-53.85728-43.65824-97.52576-97.52064-97.52576H121.9072c-53.85728 0-97.52576 43.66848-97.52576 97.52576v733.01504c0 53.8624 43.66848 97.52576 97.52576 97.52576h780.1856c53.85728 0 97.52576-43.66336 97.52576-97.52576V365.71648c0-53.85728-43.66848-97.52576-97.52576-97.52576zM121.9072 906.78272a28.3136 28.3136 0 0 1-28.28288-28.27776V145.49504a28.3136 28.3136 0 0 1 28.28288-28.28288h633.9072a28.3136 28.3136 0 0 1 28.27776 28.28288v733.01504c0 9.56928 1.19296 19.03616 3.56352 28.27776H121.9072z m808.4736-28.27776c0 21.23776-17.28 38.51776-38.52288 38.51776s-38.52288-17.28-38.52288-38.51776V327.1936h38.52288c21.24288 0 38.52288 17.28 38.52288 38.52288v512.78848z" p-id="3674"></path><path d="M219.42784 341.33504h-48.76288v195.0464h195.0464V341.33504H219.42784zM311.04 481.70496H225.34144V396.0064H311.04v85.69856zM707.05152 701.44H170.66496v-67.5328h536.38656V701.44zM414.47424 476.16h292.57728v60.22144H414.47424zM414.47424 341.33504h292.57728V409.6H414.47424zM168.95488 754.53952H706.56v71.68H168.95488z" p-id="3675"></path></svg>