<?xml version="1.0" standalone="no"?><!DOCTYPE svg PUBLIC "-//W3C//DTD SVG 1.1//EN" "http://www.w3.org/Graphics/SVG/1.1/DTD/svg11.dtd"><svg t="1645882215405" class="icon" viewBox="0 0 1024 1024" version="1.1" xmlns="http://www.w3.org/2000/svg" p-id="2088" xmlns:xlink="http://www.w3.org/1999/xlink" width="64" height="64"><defs><style type="text/css"></style></defs><path d="M399.36 388.388571a82.651429 82.651429 0 0 1 81.92 81.92V607.085714c0 45.348571-36.571429 81.92-81.92 81.92h-138.971429c-45.348571 0-81.92-36.571429-81.92-81.92V470.308571c0-45.348571 36.571429-81.92 81.92-81.92h138.971429z m0 81.92h-138.971429V607.085714h138.971429V470.308571z m0 0M730.697143 551.497143v81.92H558.811429V551.497143h171.885714z m77.531428-152.868572v81.92H558.811429V398.628571h249.417142zM648.777143 316.708571H375.222857c-37.302857 0-68.022857-29.988571-68.022857-68.022857V165.302857c0-37.302857 30.72-68.022857 68.022857-68.022857h273.554286c37.302857 0 68.022857 30.72 68.022857 68.022857V248.685714c0 38.034286-30.72 68.022857-68.022857 68.022857zM643.657143 165.302857l-268.434286 5.12 5.12 78.262857 263.314286-5.12V165.302857z m5.12 78.262857z" p-id="2089"></path><path d="M927.451429 926.72H96.548571c-39.497143 0-70.948571-32.182857-70.948571-71.68V242.102857c0-39.497143 32.182857-71.68 70.948571-71.68h265.508572v73.142857H96.548571l2.194286 611.474286 828.708572-1.462857-2.194286-611.474286-263.314286 1.462857v-73.142857h265.508572c39.497143 0 70.948571 32.182857 70.948571 71.68v612.937143c0 39.497143-31.451429 71.68-70.948571 71.68z" p-id="2090"></path></svg>