<?xml version="1.0" standalone="no"?><!DOCTYPE svg PUBLIC "-//W3C//DTD SVG 1.1//EN" "http://www.w3.org/Graphics/SVG/1.1/DTD/svg11.dtd"><svg t="1638773578772" class="icon" viewBox="0 0 1024 1024" version="1.1" xmlns="http://www.w3.org/2000/svg" p-id="1452" xmlns:xlink="http://www.w3.org/1999/xlink" width="200" height="200"><defs><style type="text/css"></style></defs><path d="M867.744 202.784A383.456 383.456 0 0 1 1024 512c0 126.4-61.088 238.56-155.36 308.544l-38.016-51.488A319.52 319.52 0 0 0 960 512a319.552 319.552 0 0 0-130.304-257.728l38.048-51.488z m-95.072 128.704A223.68 223.68 0 0 1 864 512a223.68 223.68 0 0 1-90.432 179.84l-38.048-51.488A159.776 159.776 0 0 0 800 512a159.776 159.776 0 0 0-65.376-129.024l38.048-51.488zM64 256h199.68a64 64 0 0 0 42.496-16.16l216.576-192.512A32 32 0 0 1 576 71.264v875.488a32 32 0 0 1-54.624 22.624l-214.624-214.624A64 64 0 0 0 261.504 736H64a64 64 0 0 1-64-64V320a64 64 0 0 1 64-64z" p-id="1453"></path></svg>