<?xml version="1.0" standalone="no"?><!DOCTYPE svg PUBLIC "-//W3C//DTD SVG 1.1//EN" "http://www.w3.org/Graphics/SVG/1.1/DTD/svg11.dtd"><svg t="1676524192915" class="icon" viewBox="0 0 1024 1024" version="1.1" xmlns="http://www.w3.org/2000/svg" p-id="3086" xmlns:xlink="http://www.w3.org/1999/xlink" width="64" height="64"><path d="M332.8 204.8c-28.16 0-51.2-23.04-51.2-51.2V51.2c0-28.16 23.04-51.2 51.2-51.2s51.2 23.04 51.2 51.2v102.4c0 28.16-23.04 51.2-51.2 51.2z" p-id="3087"></path><path d="M332.8 204.8c-28.16 0-51.2-23.04-51.2-51.2V51.2c0-28.16 23.04-51.2 51.2-51.2s51.2 23.04 51.2 51.2v102.4c0 28.16-23.04 51.2-51.2 51.2zM691.2 204.8c-28.16 0-51.2-23.04-51.2-51.2V51.2c0-28.16 23.04-51.2 51.2-51.2s51.2 23.04 51.2 51.2v102.4c0 28.16-23.04 51.2-51.2 51.2z" p-id="3088"></path><path d="M691.2 204.8c-28.16 0-51.2-23.04-51.2-51.2V51.2c0-28.16 23.04-51.2 51.2-51.2s51.2 23.04 51.2 51.2v102.4c0 28.16-23.04 51.2-51.2 51.2z" p-id="3089"></path><path d="M860.16 102.4h-97.28v51.2c0 39.424-32.256 71.68-71.68 71.68s-71.68-32.256-71.68-71.68V102.4H404.48v51.2c0 39.424-32.256 71.68-71.68 71.68s-71.68-32.256-71.68-71.68V102.4H163.84c-28.16 0-51.2 23.04-51.2 51.2v819.2c0 28.16 23.04 51.2 51.2 51.2h696.32c28.16 0 51.2-23.04 51.2-51.2V153.6c0-28.16-23.04-51.2-51.2-51.2z m-105.984 522.752l-343.04 235.52c-4.608 3.072-9.216 4.608-14.336 4.608-6.656 0-13.312-2.56-17.92-7.68l-112.64-112.64c-10.24-10.24-10.24-26.112 0-36.352s26.112-10.24 36.352 0l97.792 97.792 325.632-223.232c11.776-8.192 27.648-5.12 35.84 6.656s4.096 27.648-7.68 35.328zM737.28 501.76H286.72c-16.896 0-30.72-13.824-30.72-30.72s13.824-30.72 30.72-30.72h450.56c16.896 0 30.72 13.824 30.72 30.72s-13.824 30.72-30.72 30.72z m0-122.88H286.72c-16.896 0-30.72-13.824-30.72-30.72s13.824-30.72 30.72-30.72h450.56c16.896 0 30.72 13.824 30.72 30.72s-13.824 30.72-30.72 30.72z" p-id="3090"></path></svg>