<?xml version="1.0" standalone="no"?><!DOCTYPE svg PUBLIC "-//W3C//DTD SVG 1.1//EN" "http://www.w3.org/Graphics/SVG/1.1/DTD/svg11.dtd"><svg t="1639466906147" class="icon" viewBox="0 0 1024 1024" version="1.1" xmlns="http://www.w3.org/2000/svg" p-id="2688" xmlns:xlink="http://www.w3.org/1999/xlink" width="200" height="200"><defs><style type="text/css"></style></defs><path d="M956.77 162.5a65 65 0 0 0-65-64.88h-0.12L125.94 99a65.07 65.07 0 0 0-64.88 65.12l1.3 698.32a65 65 0 0 0 65 64.87h0.13l765.71-1.41a65 65 0 0 0 64.88-65.13zM126 149l765.71-1.42a15 15 0 0 1 15 15l0.81 433-184.87-289.06a25 25 0 0 0-41.24-1.29L443.09 631 293.64 472.78a25 25 0 0 0-35.85-0.51L111.9 618.15l-0.84-454.09A15 15 0 0 1 126 149z m777.69 722.52a14.89 14.89 0 0 1-10.59 4.42l-765.72 1.41a15 15 0 0 1-15-15L112 688.66c0.38-0.33 0.75-0.67 1.11-1L275 525.81l152.37 161.31a25 25 0 0 0 38.35-2.4L700.2 364.23l204.19 319.2a24.94 24.94 0 0 0 3.36 4.17l0.32 173.31a14.89 14.89 0 0 1-4.38 10.61z" p-id="2689"></path><path d="M298.8 400.9a90.47 90.47 0 1 0-90.47-90.47 90.57 90.57 0 0 0 90.47 90.47z m0-130.94a40.47 40.47 0 1 1-40.47 40.47A40.51 40.51 0 0 1 298.8 270z" p-id="2690"></path></svg>