<?xml version="1.0" standalone="no"?><!DOCTYPE svg PUBLIC "-//W3C//DTD SVG 1.1//EN" "http://www.w3.org/Graphics/SVG/1.1/DTD/svg11.dtd"><svg t="1670995823707" class="icon" viewBox="0 0 1024 1024" version="1.1" xmlns="http://www.w3.org/2000/svg" p-id="2769" xmlns:xlink="http://www.w3.org/1999/xlink" width="64" height="64"><path d="M351.8 1024H112.1c-28.6 0-55.9-9.1-76.6-25.7C12.9 980.3 0 954.7 0 928V96c0-26.6 12.9-52.3 35.5-70.3C56.3 9.2 83.5 0 112.1 0l671.8 0.2c28.6 0 55.8 9.2 76.6 25.7C883.2 44 896.1 69.6 896.1 96.2V155c0 17.7-14.3 32-32 32s-32-14.3-32-32V96.2c0-17-22.5-32-48.1-32L112.1 64c-14 0-27.3 4.3-36.7 11.7C71.1 79.2 64 86.3 64 96v832c0 17 22.5 32 48.1 32h239.7c17.7 0 32 14.3 32 32s-14.3 32-32 32z" p-id="2770"></path><path d="M993.1 1022.8c-6.8 0-13.5-2.2-19.2-6.4L772.8 865.8l-274.9 153c-9.9 5.5-22 5.4-31.8-0.4-9.8-5.7-15.8-16.2-15.8-27.6V351c0-52.9 43.1-96 96-96H929.1c52.9 0 96 43.1 96 96v639.9c0 12.1-6.8 23.2-17.7 28.6-4.5 2.2-9.4 3.3-14.3 3.3zM546.3 319c-17.6 0-32 14.4-32 32v585.4l245.5-136.6c11-6.1 24.6-5.2 34.7 2.3L961.1 926.9V351c0-17.6-14.4-32-32-32H546.3z" p-id="2771"></path></svg>