<?xml version="1.0" standalone="no"?><!DOCTYPE svg PUBLIC "-//W3C//DTD SVG 1.1//EN" "http://www.w3.org/Graphics/SVG/1.1/DTD/svg11.dtd"><svg t="1637566833321" class="icon" viewBox="0 0 1024 1024" version="1.1" xmlns="http://www.w3.org/2000/svg" p-id="3121" xmlns:xlink="http://www.w3.org/1999/xlink" width="200" height="200"><defs><style type="text/css"></style></defs><path d="M294.826667 128v85.333333c0 23.466667 19.2 42.666667 42.666666 42.666667s42.666667-19.2 42.666667-42.666667V170.666667h426.666667v682.666666h-426.666667v-42.666666c0-23.466667-19.2-42.666667-42.666667-42.666667s-42.666667 19.2-42.666666 42.666667v85.333333c0 46.933333 38.4 85.333333 85.333333 85.333333h426.666667c46.933333 0 85.333333-38.4 85.333333-85.333333V128c0-46.933333-38.4-85.333333-85.333333-85.333333h-426.666667c-46.933333 0-85.333333 38.4-85.333333 85.333333z m106.666666 533.333333c12.373333-5.12 23.466667-12.373333 34.133334-20.48l-0.853334 1.28 43.093334 16.64c9.813333 3.84 20.906667 0 26.026666-9.386666l35.84-62.293334c5.12-8.96 2.986667-20.906667-5.12-27.306666l-36.266666-29.013334-0.853334 1.28c0.853333-6.826667 2.133333-13.653333 2.133334-20.48s-1.28-13.653333-2.133334-20.48l0.853334 1.28 36.266666-29.013333c8.106667-6.4 10.24-18.346667 5.12-27.306667l-35.84-62.293333a21.290667 21.290667 0 0 0-26.026666-9.386667l-43.093334 16.64 0.853334 1.28c-10.666667-7.253333-21.76-14.506667-34.133334-19.626666l-7.253333-46.08A20.821333 20.821333 0 0 0 373.333333 298.666667H301.653333c-10.666667 0-19.626667 7.68-20.906666 17.92L273.493333 362.666667c-12.373333 5.12-23.466667 12.373333-34.133333 20.48l0.853333-1.28-43.52-16.64c-9.813333-3.84-20.906667 0-26.026666 9.386666l-35.84 62.293334c-5.12 8.96-2.986667 20.906667 5.12 27.306666l36.266666 29.013334 0.853334-1.28c-0.853333 6.4-2.133333 13.226667-2.133334 20.053333s1.28 13.653333 2.133334 20.48l-0.853334-1.28-36.266666 29.013333c-8.106667 6.4-10.24 18.346667-5.12 27.306667L170.666667 649.813333c5.12 8.96 16.213333 13.226667 26.026666 9.386667l43.093334-16.64-0.426667-1.706667c10.666667 8.106667 21.76 15.36 34.133333 20.48l7.253334 45.653334c1.28 10.666667 10.24 18.346667 20.906666 18.346666h71.68c10.666667 0 19.626667-7.68 20.906667-17.92l7.253333-46.08zM252.16 512c0-46.933333 38.4-85.333333 85.333333-85.333333s85.333333 38.4 85.333334 85.333333-38.4 85.333333-85.333334 85.333333-85.333333-38.4-85.333333-85.333333z" p-id="3122"></path></svg>