<?xml version="1.0" standalone="no"?><!DOCTYPE svg PUBLIC "-//W3C//DTD SVG 1.1//EN" "http://www.w3.org/Graphics/SVG/1.1/DTD/svg11.dtd"><svg t="1638846139455" class="icon" viewBox="0 0 1025 1024" version="1.1" xmlns="http://www.w3.org/2000/svg" p-id="5685" xmlns:xlink="http://www.w3.org/1999/xlink" width="200.1953125" height="200"><defs><style type="text/css"></style></defs><path d="M678.58432 154.503168l-26.206208 61.739008 172.038144-54.5792L744.169472 0l-27.297792 64.3072C548.585472-8.859648 346.908672 15.454208 199.632896 143.480832l64.331776 73.877504C382.12608 114.642944 543.463424 95.336448 678.58432 154.503168zM345.442304 869.496832l26.206208-61.73696-172.038144 54.575104L279.855104 1024l27.297792-64.3072c168.28416 73.168896 369.96096 48.852992 517.240832-79.171584l-64.335872-73.877504C641.900544 909.357056 480.5632 928.663552 345.442304 869.496832zM154.515456 344.526848l61.739008 26.206208-54.5792-172.038144L0.012288 278.941696l64.305152 27.297792C-8.84736 474.523648 15.464448 676.200448 143.491072 823.48032l73.877504-64.333824C114.655232 640.985088 95.348736 479.647744 154.515456 344.526848zM959.705088 715.958272c73.166848-168.286208 48.852992-369.963008-79.171584-517.240832l-73.877504 64.333824c102.715392 118.15936 122.01984 279.496704 62.851072 414.6176l-61.73696-26.206208 54.577152 172.038144 161.662976-80.248832L959.705088 715.958272z" p-id="5686"></path></svg>