<?xml version="1.0" standalone="no"?><!DOCTYPE svg PUBLIC "-//W3C//DTD SVG 1.1//EN" "http://www.w3.org/Graphics/SVG/1.1/DTD/svg11.dtd"><svg t="1639278804362" class="icon" viewBox="0 0 1024 1024" version="1.1" xmlns="http://www.w3.org/2000/svg" p-id="2702" xmlns:xlink="http://www.w3.org/1999/xlink" width="64" height="64"><defs><style type="text/css"></style></defs><path d="M853.333333 42.666667a85.333333 85.333333 0 0 1 85.333334 85.333333v768a85.333333 85.333333 0 0 1-85.333334 85.333333H170.666667a85.333333 85.333333 0 0 1-85.333334-85.333333V128a85.333333 85.333333 0 0 1 85.333334-85.333333h682.666666z m-161.962666 412.928a32 32 0 0 0-41.984 2.858666l-105.6 105.6-2.858667 3.242667a32 32 0 0 0 2.858667 41.984l3.285333 2.858667a32 32 0 0 0 41.941333-2.858667L640 558.293333 640 800l0.298667 4.352a32 32 0 0 0 63.701333-4.352v-241.706667l50.986667 50.986667 3.242666 2.858667a32 32 0 0 0 41.984-48.085334l-105.6-105.6zM808.832 256H215.168l-6.016 0.298667c-21.76 2.133333-38.485333 15.488-38.485333 31.701333 0 17.664 19.925333 32 44.501333 32h593.664l6.016-0.298667c21.76-2.133333 38.485333-15.488 38.485333-31.701333 0-17.664-19.925333-32-44.501333-32z" p-id="2703"></path></svg>