<?xml version="1.0" standalone="no"?><!DOCTYPE svg PUBLIC "-//W3C//DTD SVG 1.1//EN" "http://www.w3.org/Graphics/SVG/1.1/DTD/svg11.dtd"><svg t="1638846440754" class="icon" viewBox="0 0 1024 1024" version="1.1" xmlns="http://www.w3.org/2000/svg" p-id="10072" xmlns:xlink="http://www.w3.org/1999/xlink" width="200" height="200"><defs><style type="text/css"></style></defs><path d="M56.888889 170.666667v512h910.222222V170.666667H56.888889z m0-56.888889h910.222222c34.133333 0 56.888889 22.755556 56.888889 56.888889v512c0 34.133333-22.755556 56.888889-56.888889 56.888889H56.888889c-34.133333 0-56.888889-22.755556-56.888889-56.888889V170.666667c0-34.133333 22.755556-56.888889 56.888889-56.888889zM28.444444 853.333333h967.111112c17.066667 0 28.444444 11.377778 28.444444 28.444445s-11.377778 28.444444-28.444444 28.444444H28.444444c-17.066667 0-28.444444-11.377778-28.444444-28.444444s11.377778-28.444444 28.444444-28.444445z m221.866667-324.266666c-11.377778 11.377778-28.444444 11.377778-39.822222 0-11.377778-11.377778-11.377778-28.444444 0-39.822223L398.222222 301.511111l227.555556 170.666667 153.6-153.6c11.377778-11.377778 28.444444-11.377778 39.822222 0 11.377778 11.377778 11.377778 28.444444 0 39.822222L625.777778 551.822222l-227.555556-170.666666-147.911111 147.911111z" p-id="10073"></path></svg>